<svg width="40" height="40" viewBox="0 0 40 40" fill="none" xmlns="http://www.w3.org/2000/svg">
<path d="M4.736 31V30.328L5.376 30.136C5.80267 29.9867 6.08 29.7947 6.208 29.56C6.35733 29.304 6.432 28.952 6.432 28.504V12.344C6.432 11.896 6.35733 11.5547 6.208 11.32C6.08 11.064 5.80267 10.8613 5.376 10.712L4.736 10.52V9.848H12.736V10.52L12.096 10.712C11.6907 10.8613 11.4133 11.064 11.264 11.32C11.1147 11.5547 11.04 11.896 11.04 12.344V28.504C11.04 28.952 11.1147 29.304 11.264 29.56C11.4133 29.7947 11.6907 29.9867 12.096 30.136L12.736 30.328V31H4.736ZM22.6848 31.128L15.8368 12.248C15.5594 11.4587 15.0154 10.9467 14.2048 10.712L13.5008 10.52V9.848H22.3648V10.488L21.4688 10.712C20.9781 10.84 20.7008 11.064 20.6368 11.384C20.5941 11.704 20.6581 12.1093 20.8288 12.6L25.4368 26.264L30.0768 12.6C30.2474 12.1093 30.3221 11.704 30.3008 11.384C30.3008 11.064 30.0554 10.84 29.5648 10.712L28.7968 10.488V9.848H33.5648V10.52L32.7648 10.712C32.3168 10.8187 31.9968 11 31.8048 11.256C31.6341 11.512 31.4741 11.864 31.3248 12.312L24.9568 31.128H22.6848ZM33.7063 31.448C32.9596 31.448 32.3196 31.192 31.7863 30.68C31.2743 30.168 31.0182 29.5493 31.0182 28.824C31.0182 28.0773 31.2743 27.4373 31.7863 26.904C32.3196 26.3707 32.9596 26.104 33.7063 26.104C34.4529 26.104 35.0823 26.3707 35.5943 26.904C36.1276 27.4373 36.3943 28.0773 36.3943 28.824C36.3943 29.5493 36.1276 30.168 35.5943 30.68C35.0823 31.192 34.4529 31.448 33.7063 31.448Z" fill="#F5D0C5"/>
</svg>
